<?xml version="1.0" encoding="utf-8"?>
<!-- Generator: Adobe Illustrator 27.9.0, SVG Export Plug-In . SVG Version: 6.00 Build 0)  -->
<svg version="1.1" id="Layer_1" xmlns="http://www.w3.org/2000/svg" xmlns:xlink="http://www.w3.org/1999/xlink" x="0px" y="0px"
	 viewBox="0 0 351.64 350" style="enable-background:new 0 0 351.64 350;" xml:space="preserve">
<style type="text/css">
	.st0{fill:#414042;stroke:#414042;stroke-width:5;stroke-miterlimit:10;}
	.st1{fill:none;stroke:#414042;stroke-width:5;stroke-miterlimit:10;}
	.st2{fill:#FFFFFF;}
	.st3{fill:#CB1B2B;stroke:#A71E26;stroke-width:5;stroke-miterlimit:10;}
	.st4{fill:none;stroke:#A71825;stroke-width:5;stroke-miterlimit:10;}
	.st5{fill:#39B54A;stroke:#009444;stroke-width:5;stroke-miterlimit:10;}
	.st6{fill:none;stroke:#754C29;stroke-width:7;stroke-miterlimit:10;}
	.st7{fill:#FBB040;stroke:#F7941D;stroke-width:5;stroke-miterlimit:10;}
	.st8{fill:none;stroke:#F7941D;stroke-width:5;stroke-miterlimit:10;}
	.st9{fill:#009444;}
	.st10{fill:#C49A6C;}
	.st11{fill:#754C29;}
	.st12{fill:#754C29;stroke:#754C29;stroke-width:3;stroke-miterlimit:10;}
	.st13{fill:none;stroke:#754C29;stroke-width:3;stroke-miterlimit:10;}
</style>
<circle class="st7" cx="133.75" cy="216.39" r="115.38"/>
<path class="st8" d="M164.19,94.29c-9.75-2.42-19.94-3.72-30.44-3.72C64.26,90.57,7.93,146.9,7.93,216.39
	s56.33,125.82,125.82,125.82s125.82-56.33,125.82-125.82c0-10.5-1.29-20.69-3.72-30.44"/>
<path class="st5" d="M226.79,129.52c0,0,27.31-26.03,58.62-23.86s54.75,31.74,54.75,31.74s-27.31,26.03-58.62,23.86
	C250.24,159.09,226.79,129.52,226.79,129.52z"/>
<path class="st5" d="M215.65,119.82c0,0-31.36-20.99-36.05-52.01s19.05-60.35,19.05-60.35s31.36,20.99,36.05,52.01
	S215.65,119.82,215.65,119.82z"/>
<g>
	<path class="st2" d="M89.45,182.55v35.78c0,12.27-6.78,18.4-20.35,18.4c-13.52,0-20.27-6.13-20.27-18.4v-35.78h15.47v36.25
		c0,4.69,0.67,7.89,2.01,9.61c1.34,1.72,3.82,2.58,7.44,2.58c7,0,10.51-4.22,10.51-12.66v-35.78H89.45z"/>
	<path class="st2" d="M154.88,235.87h-14.26V206.3c0-2.58-0.76-3.87-2.27-3.87c-3.49,0-5.23,3.71-5.23,11.13v22.3h-14.26v-28.95
		c0-2.94-0.68-4.41-2.03-4.41c-3.54,0-5.31,3.7-5.31,11.09v22.27H97.26v-39.49c4.82,0,9.57-0.33,14.26-0.98v6.8
		c3.36-4.5,7.5-6.76,12.42-6.76c4.11,0,7.17,2.12,9.18,6.37c3.18-4.3,7.15-6.45,11.91-6.45c6.56,0,9.84,3.32,9.84,9.96V235.87z"/>
	<path class="st2" d="M202.61,234.47c-3.49,1.35-6.89,2.03-10.2,2.03c-4.9,0-7.92-1.52-9.06-4.57c-2.37,3.18-5.78,4.77-10.23,4.77
		c-8.31,0-12.46-3.85-12.46-11.56c0-5.86,3.8-9.97,11.41-12.34c6.98-2.19,10.47-4.82,10.47-7.89c0-4.04-2.01-6.05-6.02-6.05
		c-4.64,0-6.95,1.95-6.95,5.86c0,1.22,0.36,2.84,1.09,4.84l-7.07-1.37c-0.18-1.22-0.27-2.37-0.27-3.44c0-6.25,5.7-9.38,17.11-9.38
		c10.83,0,16.25,2.92,16.25,8.75v23.91c0,2.45,0.79,3.67,2.38,3.67c0.49,0,1.22-0.27,2.19-0.82L202.61,234.47z M182.42,212.2
		c-0.89,1.02-1.91,1.86-3.09,2.54c-2.94,1.72-4.41,4.61-4.41,8.67c0,5.21,1.02,7.81,3.05,7.81c2.97,0,4.45-2.58,4.45-7.73V212.2z"/>
	<path class="st2" d="M205.38,235.87v-39.34c4.45,0,9.21-0.35,14.26-1.05v40.39H205.38z M212.61,181.22c4.43,0,6.64,1.72,6.64,5.16
		s-2.21,5.16-6.64,5.16c-4.43,0-6.64-1.72-6.64-5.16S208.18,181.22,212.61,181.22z"/>
</g>
<path class="st9" d="M338,136.8c0,0-26.27,24.06-56.38,22.04c-30.12-2-52.67-29.32-52.67-29.32L338,136.8z"/>
<path class="st9" d="M215.93,117.6c0,0-29.32-20.23-34.08-50.03c-4.77-29.8,16.82-57.89,16.82-57.89L215.93,117.6z"/>
</svg>
